<svg width="26" height="20" viewBox="0 0 26 20" fill="none" xmlns="http://www.w3.org/2000/svg">
<path d="M22.0495 1.67485C20.377 0.892364 18.5888 0.323664 16.7192 -0.00012207C16.4896 0.414988 16.2213 0.973311 16.0364 1.41748C14.049 1.1186 12.0798 1.1186 10.129 1.41748C9.94407 0.973311 9.66974 0.414988 9.43807 -0.00012207C7.56648 0.323664 5.77618 0.89444 4.10373 1.679C0.730397 6.77655 -0.184062 11.7475 0.273168 16.6479C2.51054 18.3187 4.67883 19.3336 6.81053 19.9978C7.33685 19.2734 7.80627 18.5034 8.21067 17.6919C7.44049 17.3992 6.70283 17.0381 6.00581 16.6188C6.19073 16.4818 6.37159 16.3386 6.54635 16.1912C10.7976 18.1796 15.4166 18.1796 19.617 16.1912C19.7938 16.3386 19.9747 16.4818 20.1576 16.6188C19.4585 17.0401 18.7188 17.4013 17.9486 17.6939C18.353 18.5034 18.8204 19.2755 19.3488 19.9999C21.4825 19.3357 23.6528 18.3208 25.8902 16.6479C26.4267 10.9671 24.9737 6.0418 22.0495 1.67485ZM8.78983 13.6342C7.51365 13.6342 6.4671 12.4428 6.4671 10.992C6.4671 9.54118 7.49129 8.34774 8.78983 8.34774C10.0884 8.34774 11.1349 9.53911 11.1125 10.992C11.1146 12.4428 10.0884 13.6342 8.78983 13.6342ZM17.3735 13.6342C16.0974 13.6342 15.0508 12.4428 15.0508 10.992C15.0508 9.54118 16.075 8.34774 17.3735 8.34774C18.6721 8.34774 19.7186 9.53911 19.6963 10.992C19.6963 12.4428 18.6721 13.6342 17.3735 13.6342Z" fill="white"/>
</svg>
